# xmcd
#
# Track frame offsets:
#	150
#	21162
#	37355
#	57225
#	72412
#	86950
#	108142
#	121620
#	138130
#	155495
#	170482
#	181512
#	201252
#	217595
#	236712
#	253307
#	272222
#	291050
#	308962
#
# Disc length: 4350 seconds
#
# Revision: 0
# Processed by: cddbd v1.5.2PL0 Copyright (c) Steve Scherf et al.
# Submitted via: audiograbber 1.83.01
#
DISCID=1410fc13
DTITLE=Various Artist - Country Nights - Disc 2
DYEAR=1990
DGENRE=Country
TTITLE0=K. T. Oslin - Hold Me
TTITLE1=Conway Twitty - I Want To Know You Before Ee Make Love
TTITLE2=Rodney Crowell - After All This Time
TTITLE3=Lee Greenwood - I Don't Mind The Thorns (If You're The Rose)
TTITLE4=Forester Sisters - I Fell In Love Again Last Night
TTITLE5=Gary morris - The Wind Beneath My Wings
TTITLE6=Waylon Jennings - Drinkin' And Dreamin'
TTITLE7=Garth Brooks - If Tomorrow Never Comes
TTITLE8=Earl thomas Conley - What I'd Say
TTITLE9=Roseanne Cash and Rodney Crowell - It's Such A Small World
TTITLE10=Eddy Raven - I Got Mexico
TTITLE11=Kathy Mattea - Goin' Gone
TTITLE12=Alan Jackson - Here In The Real World
TTITLE13=Restless Heart - I'll Still Be Loving You
TTITLE14=Shenandoah - Two Dozen Roses
TTITLE15=Keith Whitley - Don't Close Your Eyes
TTITLE16=Patty Loveless - Don't Toss Us Away
TTITLE17=Vern Gosdin - That Just About Does It
TTITLE18=Eddie Rabbitt and Juice Newton - Both To Each Other (Friends and Lovers)
EXTD=
EXTT0=
EXTT1=
EXTT2=
EXTT3=
EXTT4=
EXTT5=
EXTT6=
EXTT7=
EXTT8=
EXTT9=
EXTT10=
EXTT11=
EXTT12=
EXTT13=
EXTT14=
EXTT15=
EXTT16=
EXTT17=
EXTT18=
PLAYORDER=
